<svg width="22" height="22" viewBox="0 0 22 22" fill="none" xmlns="http://www.w3.org/2000/svg">
<path d="M20.4022 0.9275L20.3314 0.860249L20.2625 0.929415L10.9999 10.2251L1.70404 0.929289L1.63333 0.858579L1.56262 0.929289L0.929289 1.56262L0.858705 1.63321L0.929163 1.70392L10.1922 11L0.929163 20.2961L0.858705 20.3668L0.929289 20.4374L1.56262 21.0707L1.63333 21.1414L1.70404 21.0707L10.9999 11.7749L20.2625 21.0706L20.3314 21.1398L20.4022 21.0725L21.0689 20.4392L21.1433 20.3685L21.0707 20.296L11.7748 11L21.0707 1.70404L21.1433 1.6315L21.0689 1.56083L20.4022 0.9275Z" fill="black" stroke="black" stroke-width="0.2"/>
</svg>
