<svg width="25" height="25" viewBox="0 0 25 25" fill="none" xmlns="http://www.w3.org/2000/svg">
<g opacity="0.85">
<path d="M12.4339 7.3634C9.34745 7.3634 6.79013 9.87663 6.79013 13.0071C6.79013 16.1377 9.30336 18.6509 12.4339 18.6509C15.5644 18.6509 18.0776 16.0936 18.0776 13.0071C18.0776 9.92072 15.5203 7.3634 12.4339 7.3634ZM12.4339 16.6227C10.4497 16.6227 8.81835 14.9913 8.81835 13.0071C8.81835 11.023 10.4497 9.39162 12.4339 9.39162C14.418 9.39162 16.0494 11.023 16.0494 13.0071C16.0494 14.9913 14.418 16.6227 12.4339 16.6227Z" fill="white"/>
<path d="M18.2981 8.50971C19.0042 8.50971 19.5767 7.93724 19.5767 7.23105C19.5767 6.52487 19.0042 5.95239 18.2981 5.95239C17.5919 5.95239 17.0194 6.52487 17.0194 7.23105C17.0194 7.93724 17.5919 8.50971 18.2981 8.50971Z" fill="white"/>
<path d="M21.605 3.92421C20.4586 2.73374 18.8273 2.11646 16.9754 2.11646H7.89251C4.05653 2.11646 1.49921 4.67377 1.49921 8.50975V17.5486C1.49921 19.4445 2.11649 21.0759 3.35106 22.2664C4.54154 23.4128 6.12884 23.9859 7.9366 23.9859H16.9313C18.8273 23.9859 20.4146 23.3687 21.5609 22.2664C22.7514 21.12 23.3687 19.4886 23.3687 17.5926V8.50975C23.3687 6.6579 22.7514 5.0706 21.605 3.92421ZM21.4287 17.5926C21.4287 18.9595 20.9437 20.0618 20.15 20.8113C19.3564 21.5609 18.2541 21.9577 16.9313 21.9577H7.9366C6.61385 21.9577 5.51155 21.5609 4.7179 20.8113C3.92425 20.0177 3.52743 18.9154 3.52743 17.5486V8.50975C3.52743 7.187 3.92425 6.08471 4.7179 5.29106C5.46746 4.5415 6.61385 4.14467 7.9366 4.14467H17.0195C18.3422 4.14467 19.4445 4.5415 20.2382 5.33515C20.9877 6.1288 21.4287 7.23109 21.4287 8.50975V17.5926Z" fill="white"/>
</g>
</svg>
